<svg enable-background="new 0 0 512.006 512.006" viewBox="0 0 512.006 512.006" xmlns="http://www.w3.org/2000/svg"><g><g><g><path d="m463.364 465.003c-12.958 0-23.5 10.542-23.5 23.5s10.542 23.5 23.5 23.5 23.5-10.542 23.5-23.5-10.542-23.5-23.5-23.5zm0 32c-4.687 0-8.5-3.813-8.5-8.5s3.813-8.5 8.5-8.5 8.5 3.813 8.5 8.5-3.813 8.5-8.5 8.5z"></path></g><g><path d="m393.005 360.23c0-12.958-10.542-23.5-23.5-23.5s-23.5 10.542-23.5 23.5 10.542 23.5 23.5 23.5 23.5-10.542 23.5-23.5zm-32 0c0-4.687 3.813-8.5 8.5-8.5s8.5 3.813 8.5 8.5-3.813 8.5-8.5 8.5-8.5-3.813-8.5-8.5z"></path></g><g><path d="m470.864 283.461c0-12.958-10.542-23.5-23.5-23.5s-23.5 10.542-23.5 23.5 10.542 23.5 23.5 23.5 23.5-10.542 23.5-23.5zm-32 0c0-4.687 3.813-8.5 8.5-8.5s8.5 3.813 8.5 8.5-3.813 8.5-8.5 8.5-8.5-3.813-8.5-8.5z"></path></g><g><path d="m285.406 303.18h-237.432c-4.143 0-7.5 3.358-7.5 7.5s3.357 7.5 7.5 7.5h237.432c13.967 0 25.33-11.363 25.33-25.33s-11.363-25.33-25.33-25.33h-9.334c-4.143 0-7.5 3.358-7.5 7.5s3.357 7.5 7.5 7.5h9.334c5.696 0 10.33 4.634 10.33 10.33s-4.634 10.33-10.33 10.33z"></path></g><g><path d="m373.85 425.816h-263.497c-4.143 0-7.5 3.358-7.5 7.5s3.357 7.5 7.5 7.5h263.497c5.696 0 10.33 4.634 10.33 10.33s-4.634 10.33-10.33 10.33h-9.335c-4.143 0-7.5 3.358-7.5 7.5s3.357 7.5 7.5 7.5h9.335c13.967 0 25.33-11.363 25.33-25.33s-11.363-25.33-25.33-25.33z"></path></g><g><path d="m304.811 366.199c0-4.142-3.357-7.5-7.5-7.5h-289.806c-4.143 0-7.5 3.358-7.5 7.5s3.357 7.5 7.5 7.5h289.807c4.142 0 7.499-3.358 7.499-7.5z"></path></g><g><path d="m511.966 184.884c-1.084-28.732-24.398-51.566-53.078-51.983-5.697-.084-11.309.718-16.694 2.384 12.196-10.63 19.124-26.323 18.503-42.905-1.088-28.735-24.402-51.566-53.077-51.976-6.617-.1-13.096.997-19.256 3.247-1.777-3.59-3.841-7.063-6.145-10.341-2.383-3.388-7.061-4.204-10.449-1.822s-4.204 7.061-1.822 10.449c2.07 2.944 3.899 6.082 5.442 9.337 3.057 6.425 10.602 9.426 17.177 6.824 4.719-1.863 9.707-2.768 14.838-2.697 20.348.291 37.53 17.133 38.302 37.542.452 12.049-4.6 23.447-13.485 31.133-14.612-19.551-37.881-31.574-62.716-31.574-29.606 0-56.986 17.085-70.13 43.645-4.332-1.584-8.828-2.591-13.411-3.017-2.801-1.664-5.483-3.56-8.002-5.657-9.48-16.69-27.002-27.164-46.079-27.439-6.623-.1-13.097.996-19.247 3.247-4.639-9.373-11.051-17.566-18.708-24.245 6.041-13.915 19.879-23.419 35.143-23.633 5.128-.063 10.117.833 14.826 2.696 6.577 2.599 14.122-.397 17.184-6.833 10.44-22.028 32.874-36.262 57.152-36.262 10.645 0 21.166 2.703 30.428 7.816 3.629 2.004 8.189.686 10.19-2.94 2.002-3.626.686-8.189-2.94-10.191-11.476-6.336-24.504-9.686-37.678-9.686-29.607 0-56.99 17.092-70.131 43.647-6.149-2.25-12.601-3.343-19.244-3.246-20.074.282-38.361 12.123-47.325 29.766-11.686-6.761-25.111-10.537-39.028-10.537-29.606 0-56.988 17.089-70.132 43.65-3.959-1.436-12.858-4.146-21.362-3.161-4.114.478-7.063 4.2-6.586 8.314s4.205 7.059 8.314 6.586c4.031-.47 10.091.593 15.429 2.705 6.586 2.602 14.133-.398 17.185-6.833 10.439-22.028 32.873-36.262 57.152-36.262s46.713 14.234 57.153 36.264c3.051 6.434 10.6 9.435 17.186 6.831 4.707-1.862 9.697-2.758 14.822-2.695 13.888.2 26.647 7.927 33.459 20.217-21.419 6.56-37.194 26.122-38.081 49.635-.103 2.738-.006 5.449.285 8.117-8.224-.797-15.994-4.196-22.189-9.765-5.277-4.766-13.412-4.589-18.518.403-11.873 11.604-27.542 17.994-44.118 17.994s-32.245-6.39-44.115-17.991c-5.097-4.986-13.232-5.169-18.522-.413-7.132 6.419-16.345 9.955-25.942 9.955-10.646 0-20.584-4.232-27.984-11.917-7.441-7.727-11.316-17.916-10.911-28.685.398-10.381 4.865-20.028 12.578-27.162 3.041-2.813 3.226-7.558.413-10.599-2.813-3.04-7.558-3.226-10.599-.413-10.658 9.856-16.83 23.209-17.383 37.603-.561 14.885 4.801 28.97 15.096 39.66 10.255 10.648 24.03 16.512 38.789 16.512 12.85 0 25.202-4.57 34.938-12.894 14.572 13.775 33.567 21.343 53.643 21.343 20.071 0 39.064-7.567 53.639-21.339 9.746 8.323 22.099 12.89 34.941 12.89.066 0 .132 0 .198-.001 2.546 5.989 6.195 11.523 10.855 16.362 10.254 10.648 24.028 16.513 38.784 16.513 12.845 0 25.199-4.57 34.946-12.896 14.571 13.773 33.565 21.342 53.637 21.342 20.073 0 39.065-7.568 53.637-21.343 9.746 8.327 22.101 12.897 34.946 12.897 4.64 0 9.25-.594 13.703-1.764 4.006-1.053 6.399-5.154 5.347-9.16-1.054-4.006-5.148-6.398-9.161-5.347-3.208.843-6.535 1.271-9.889 1.271-9.596 0-18.813-3.537-25.952-9.958-5.284-4.754-13.416-4.578-18.514.406-11.873 11.606-27.541 17.998-44.117 17.998s-32.244-6.392-44.117-17.997c-5.096-4.983-13.228-5.163-18.513-.408-7.141 6.422-16.357 9.959-25.953 9.959-10.643 0-20.579-4.232-27.979-11.917-4.304-4.469-7.415-9.763-9.194-15.516-.064-.27-.143-.534-.235-.791-1.132-3.959-1.64-8.125-1.479-12.383.77-20.409 17.954-37.254 38.307-37.551.894-.012 1.784.007 2.67.054.158.015.317.024.475.028 4.016.263 7.941 1.134 11.685 2.615 6.586 2.603 14.133-.396 17.18-6.831 10.438-22.028 32.871-36.262 57.154-36.262 22.156 0 42.772 11.849 54.141 30.656.055.104.112.207.172.309.073.124.149.243.228.361.939 1.597 1.812 3.243 2.613 4.935 3.048 6.434 10.592 9.438 17.183 6.831 4.713-1.864 9.717-2.756 14.828-2.696 20.353.297 37.537 17.142 38.307 37.551.336 8.882-2.222 17.351-7.395 24.491-2.431 3.354-1.682 8.043 1.673 10.474 3.354 2.431 8.043 1.681 10.474-1.673 7.158-9.884 10.698-21.592 10.235-33.858z"></path></g></g></g></svg>