<!-- icon666.com - MILLIONS OF FREE VECTOR ICONS --><svg id="Capa_1" enable-background="new 0 0 512.001 512.001" viewBox="0 0 512.001 512.001" xmlns="http://www.w3.org/2000/svg"><g><path d="m511.958 279.365c-.437-4.119-4.124-7.097-8.249-6.667-1.728.183-3.457.364-5.186.543.21-7.582-1.735-15.231-5.887-21.924l-7.881-12.704c-31.387-50.595-85.648-81.898-145.15-83.738-3.994-.13-8.095.387-12.187 1.515-15.83 4.361-31.352 7.383-46.524 9.068v-.085c0-13.727-11.167-24.895-24.894-24.895s-24.895 11.168-24.895 24.895v.691c-15.847-1.464-31.214-4.563-46.048-9.297-4.38-1.396-8.886-2.032-13.396-1.867-59.198 2.074-113.186 33.37-144.417 83.714l-7.88 12.704c-4.152 6.693-6.097 14.343-5.887 21.924-1.729-.179-3.457-.36-5.186-.543-4.125-.438-7.812 2.547-8.249 6.667-.437 4.119 2.548 7.812 6.667 8.249 3.448.366 6.897.723 10.346 1.073 1.227 2.682 2.765 5.249 4.613 7.642l11.42 14.789c14.434 18.691 33.268 34.075 54.464 44.487 21.197 10.413 44.883 15.917 68.5 15.917h117.341c4.143 0 7.5-3.357 7.5-7.5s-3.357-7.5-7.5-7.5h-117.34c-43.174 0-84.704-20.4-111.092-54.572l-8.805-11.402c73.015 6.816 146.43 10.224 219.844 10.224s146.828-3.408 219.843-10.224l-8.803 11.402c-26.389 34.172-67.919 54.572-111.093 54.572h-53.553c-4.143 0-7.5 3.357-7.5 7.5s3.357 7.5 7.5 7.5h53.553c23.616 0 47.303-5.504 68.5-15.917 21.196-10.412 40.03-25.796 54.465-44.487l11.42-14.789c1.848-2.393 3.386-4.96 4.613-7.642 3.45-.35 6.898-.708 10.346-1.073 4.119-.437 7.105-4.131 6.667-8.25zm-265.852-113.993c0-5.456 4.438-9.895 9.895-9.895 5.456 0 9.894 4.438 9.894 9.895v1.321c-6.669.355-13.267.443-19.789.264zm-217.521 109.388c-.563-5.323.596-10.813 3.526-15.536l7.88-12.703c5.61-9.044 12.023-17.416 19.117-25.047.905 5.979 2.844 11.687 5.779 16.849 2.045 3.599 6.624 4.862 10.226 2.814 3.601-2.047 4.861-6.626 2.814-10.227-3.868-6.805-5.235-15.086-3.928-23.548 18.128-15.119 39.388-26.127 62.335-32.187 15.667 11.631 17.35 36.726 1.965 55.147-10.792 12.921-27.626 18.936-41.892 14.975-3.992-1.113-8.125 1.226-9.235 5.217-1.109 3.99 1.226 8.125 5.217 9.234 4.343 1.208 8.795 1.794 13.257 1.794 16.245 0 32.608-7.769 44.165-21.604 17.5-20.953 18.657-49.704 4.087-68.376 6.019-.895 12.123-1.458 18.289-1.674 2.784-.101 5.577.295 8.31 1.167 49.784 15.887 101.33 13.452 150.907-.206 2.644-.729 5.238-1.058 7.739-.983 6.396.198 12.727.768 18.965 1.695-3.251 4.161-5.795 8.901-7.506 14.03-1.312 3.929.812 8.177 4.741 9.487 3.934 1.313 8.178-.817 9.487-4.741 2.127-6.375 5.921-11.514 10.842-15.166 22.948 6.056 44.202 17.058 62.329 32.18 1.986 12.7-2.001 24.509-10.901 31.941-14.91 12.455-38.866 8.432-53.398-8.969-3.638-4.354-6.411-9.196-8.244-14.388-1.38-3.906-5.669-5.951-9.569-4.575-3.906 1.38-5.954 5.664-4.575 9.569 2.431 6.882 6.089 13.277 10.876 19.009 11.783 14.107 28.361 21.554 44.339 21.554 10.919 0 21.558-3.479 30.188-10.688 8.796-7.347 14.39-17.796 16.153-29.364 7.101 7.637 13.521 16.02 19.14 25.078l7.881 12.705c2.93 4.722 4.089 10.212 3.525 15.535-151.014 14.686-303.816 14.686-454.831.002z"></path><path d="m256 187.868c-24.945 0-45.24 20.295-45.24 45.24s20.295 45.239 45.24 45.239 45.24-20.294 45.24-45.239-20.295-45.24-45.24-45.24zm0 75.479c-16.674 0-30.24-13.565-30.24-30.239 0-16.675 13.566-30.24 30.24-30.24s30.24 13.565 30.24 30.24c0 16.674-13.565 30.239-30.24 30.239z"></path><path d="m256 223.325c-4.142 0-7.5 3.357-7.5 7.5v4.565c0 4.143 3.358 7.5 7.5 7.5s7.5-3.357 7.5-7.5v-4.565c.001-4.143-3.357-7.5-7.5-7.5z"></path><path d="m104.562 215.75c1.403 1.173 3.108 1.744 4.804 1.744 2.146 0 4.277-.916 5.76-2.692l3.77-4.514c2.655-3.179 2.23-7.908-.948-10.563-3.179-2.656-7.909-2.231-10.564.948l-3.77 4.514c-2.655 3.178-2.23 7.908.948 10.563z"></path><path d="m396.873 214.802c1.483 1.776 3.614 2.692 5.761 2.692 1.695 0 3.4-.572 4.804-1.743 3.179-2.655 3.604-7.385.949-10.564l-3.77-4.514c-2.655-3.179-7.384-3.604-10.564-.949-3.179 2.655-3.604 7.385-.949 10.564z"></path><path d="m136.84 318.566c-5.564 1.104-11.092-.037-16.895-3.491-3.562-2.12-8.163-.951-10.281 2.608-2.119 3.559-.951 8.162 2.609 10.28 6.721 4.001 13.579 6.012 20.465 6.012 2.338 0 4.681-.231 7.022-.696 4.062-.806 6.703-4.753 5.896-8.816s-4.748-6.7-8.816-5.897z"></path><path d="m379.262 333.975c6.887 0 13.745-2.011 20.466-6.012 3.56-2.118 4.728-6.722 2.608-10.28-2.117-3.561-6.722-4.727-10.28-2.608-5.804 3.454-11.331 4.595-16.896 3.491-4.069-.81-8.011 1.834-8.816 5.896-.807 4.063 1.834 8.011 5.896 8.816 2.342.466 4.683.697 7.022.697z"></path></g></svg>