<svg id="Layer_1" viewBox="0 0 512 512" xmlns="http://www.w3.org/2000/svg" data-name="Layer 1"><path d="m176.674 138.923 88.918-49.923c.178-.1.354-.206.527-.316a20.231 20.231 0 0 1 21.161-.748 21.915 21.915 0 0 1 11.383 19.571v133.72a10.667 10.667 0 1 0 21.333 0v-133.718a43.524 43.524 0 0 0 -22.474-38.285 41.536 41.536 0 0 0 -42.622 1.316l-88.67 49.78a10.667 10.667 0 0 0 10.444 18.6z"></path><path d="m448.585 121.9a10.667 10.667 0 0 0 -17.5 12.205 213.512 213.512 0 0 1 14.355 220.063 10.667 10.667 0 1 0 18.934 9.832 234.848 234.848 0 0 0 -15.788-242.1z"></path><path d="m384 256a116.647 116.647 0 0 1 -8.189 43.144 10.667 10.667 0 1 0 19.829 7.856 138.826 138.826 0 0 0 -15.187-130.249 10.666 10.666 0 1 0 -17.49 12.215 116.492 116.492 0 0 1 21.037 67.034z"></path><path d="m70.711 92.281a10.667 10.667 0 1 0 -13.423 16.581l49.994 40.471h-37.953a48.054 48.054 0 0 0 -48 48v117.334a48.054 48.054 0 0 0 48 48h45.211l140.36 78.792a41.537 41.537 0 0 0 42.624 1.317 43.525 43.525 0 0 0 22.476-38.286v-82.961l121.293 98.189a10.667 10.667 0 0 0 13.423-16.581zm-28.049 222.386v-117.334a26.7 26.7 0 0 1 26.667-26.667h37.338v170.667h-37.338a26.7 26.7 0 0 1 -26.667-26.666zm256 89.824a21.918 21.918 0 0 1 -11.383 19.572 20.243 20.243 0 0 1 -21.161-.748c-.173-.111-.349-.217-.527-.316l-137.591-77.241v-179.515l.1-.057 170.562 138.074z"></path></svg>