<!-- icon666.com - MILLIONS OF FREE VECTOR ICONS --><svg viewBox="0 -41 512 512" xmlns="http://www.w3.org/2000/svg"><path d="m186.890625 176.980469c2.046875 0 4.085937-.832031 5.5625-2.472657 25.703125-28.429687 39.855469-65.144531 39.855469-103.375 0-16.78125-2.679688-33.289062-7.964844-49.0625-1.0625-3.167968.882812-5.144531 1.769531-5.847656.695313-.550781 3.195313-2.210937 6.144531-.390625 16.175782 9.984375 30.203126 22.757813 41.695313 37.964844 2.496094 3.304687 7.199219 3.960937 10.503906 1.460937 3.304688-2.496093 3.957031-7.199218 1.460938-10.503906-12.613281-16.691406-28.015625-30.71875-45.777344-41.6875-7.371094-4.550781-16.535156-4-23.347656 1.402344-6.796875 5.390625-9.414063 14.171875-6.671875 22.367188 4.769531 14.234374 7.1875 29.136718 7.1875 44.296874 0 34.507813-12.777344 67.648438-35.980469 93.316407-2.777344 3.074219-2.539063 7.816406.535156 10.59375 1.433594 1.296875 3.234375 1.9375 5.027344 1.9375zm0 0"></path><path d="m426.296875 352.875h-.105469c-4.140625 0-7.5 3.359375-7.5 7.5 0 4.144531 3.359375 7.5 7.5 7.5h.105469c4.144531 0 7.5-3.355469 7.5-7.5 0-4.140625-3.359375-7.5-7.5-7.5zm0 0"></path><path d="m91 405.109375h-.105469c-4.140625 0-7.5 3.359375-7.5 7.5 0 4.144531 3.359375 7.5 7.5 7.5h.105469c4.140625 0 7.5-3.355469 7.5-7.5 0-4.140625-3.359375-7.5-7.5-7.5zm0 0"></path><path d="m68.960938 415.109375h-.105469c-.023438 0-.046875 0-.074219 0-4.105469 0-7.457031 3.3125-7.496094 7.429687-.039062 4.140626 3.285156 7.53125 7.429688 7.570313h.101562.074219c4.109375 0 7.457031-3.3125 7.496094-7.429687.039062-4.140626-3.285157-7.53125-7.425781-7.570313zm0 0"></path><path d="m504.5 296.34375h-23.390625c.609375-3.519531.917969-7.09375.917969-10.695312 0-32.441407-25.078125-59.441407-56.863282-62.40625-5.101562-11.570313-12.699218-22.050782-22.167968-30.539063-3.082032-2.765625-7.824219-2.503906-10.589844.578125-2.765625 3.085938-2.503906 7.828125.578125 10.589844 8.917969 7.992187 15.835937 18.101562 20.007813 29.238281 1.085937 2.894531 3.839843 4.828125 6.933593 4.863281 25.972657.316406 47.105469 21.699219 47.105469 47.675782 0 3.621093-.410156 7.207031-1.210938 10.695312h-128.128906c.113282-1.386719.1875-2.777344.1875-4.175781 0-25.414063-19.378906-46.621094-44.136718-49.449219-3.582032-7.8125-8.539063-14.78125-14.511719-20.660156 7.40625-12.835938 18.253906-22.90625 31.050781-29.300782.128906-.0625.257812-.121093.382812-.191406 10.011719-4.929687 21.191407-7.621094 32.832032-7.621094 7.8125 0 15.511718 1.207032 22.875 3.59375 3.9375 1.277344 8.171875-.882812 9.445312-4.824218 1.277344-3.941406-.882812-8.171875-4.824218-9.445313-8.859376-2.871093-18.109376-4.324219-27.496094-4.324219-9.050782 0-17.867188 1.359376-26.222656 3.914063 1.582031-9.320313 2.402343-18.800781 2.402343-28.332031 0-25.007813-5.40625-49.085938-16.0625-71.570313-1.773437-3.742187-6.246093-5.332031-9.992187-3.5625-3.738282 1.773438-5.335938 6.246094-3.5625 9.988281 9.699218 20.460938 14.617187 42.378907 14.617187 65.148438 0 11.972656-1.402343 23.859375-4.136719 35.390625-13.441406 7.375-24.929687 18.210937-33.175781 31.734375-10.984375-6.9375-23.886719-10.882812-37.375-10.882812-34.859375 0-64.160156 25.667968-69.289062 59.503906-17.109375 3.355468-30.183594 17.261718-32.40625 34.664062-43.800781-6.945312-82.132813-32.480468-105.617188-70.523437-1.820312-2.949219-.160156-5.445313.390625-6.144531.703125-.886719 2.679688-2.828126 5.855469-1.769532 15.71875 5.269532 32.175781 7.949219 48.90625 7.964844h.144531c31.953125 0 62.640625-9.734375 88.75-28.152344 3.382813-2.390625 4.191406-7.066406 1.804688-10.453125-2.386719-3.382812-7.066406-4.191406-10.453125-1.804687-23.566407 16.625-51.261719 25.410156-80.101563 25.410156-.042968 0-.085937 0-.132812 0-15.109375-.015625-29.96875-2.433594-44.152344-7.1875-8.199219-2.746094-16.980469-.125-22.375 6.671875-5.398438 6.808594-5.949219 15.972656-1.402344 23.34375 17.105469 27.710937 41.398438 49.371094 69.855469 63.046875h-72.265625c-4.140625 0-7.5 3.359375-7.5 7.5 0 4.144531 3.359375 7.5 7.5 7.5h497c4.144531 0 7.5-3.355469 7.5-7.5 0-4.140625-3.355469-7.5-7.5-7.5zm-336.71875-20.824219c3.863281-.132812 6.992188-3.183593 7.226562-7.042969 1.757813-28.992187 25.90625-51.703124 54.984376-51.703124 22.847656 0 43.582031 14.371093 51.601562 35.761718 1.082031 2.894532 3.835938 4.828125 6.929688 4.867188 18.945312.226562 34.355468 15.824218 34.355468 34.769531 0 1.398437-.09375 2.792969-.257812 4.171875h-179.207032c2.199219-11.601562 12.113282-20.402344 24.367188-20.824219zm0 0"></path><path d="m352.351562 399.167969h-56.351562c-4.144531 0-7.5 3.359375-7.5 7.5 0 4.144531 3.355469 7.5 7.5 7.5h56.351562c4.144532 0 7.5-3.355469 7.5-7.5 0-4.140625-3.359374-7.5-7.5-7.5zm0 0"></path><path d="m307.347656 360.375c0-4.140625-3.359375-7.5-7.5-7.5h-17.042968c-4.144532 0-7.5 3.359375-7.5 7.5 0 4.144531 3.355468 7.5 7.5 7.5h17.042968c4.140625 0 7.5-3.355469 7.5-7.5zm0 0"></path><path d="m265 415.109375h-96.058594c-4.140625 0-7.5 3.355469-7.5 7.5s3.359375 7.5 7.5 7.5h96.058594c4.144531 0 7.5-3.355469 7.5-7.5s-3.355469-7.5-7.5-7.5zm0 0"></path><path d="m68.785156 154.914062h.039063c4.125 0 7.476562-3.335937 7.496093-7.464843l.015626-2.71875c.019531-4.140625-3.324219-7.515625-7.464844-7.535157-.011719 0-.023438 0-.035156 0-4.125 0-7.480469 3.335938-7.5 7.464844l-.015626 2.71875c-.015624 4.140625 3.324219 7.515625 7.464844 7.535156zm0 0"></path><path d="m68.785156 164.84375c-4.164062-.039062-7.515625 3.320312-7.535156 7.464844l-.015625 2.714844c-.019531 4.144531 3.324219 7.515624 7.464844 7.539062h.039062c4.125 0 7.476563-3.335938 7.496094-7.464844l.015625-2.71875c.019531-4.140625-3.320312-7.515625-7.464844-7.535156zm0 0"></path><path d="m73.777344 159.878906c-.019532 4.144532 3.324218 7.515625 7.464844 7.535156l2.722656.011719h.035156c4.125 0 7.480469-3.332031 7.5-7.464843.019531-4.140626-3.324219-7.515626-7.464844-7.535157l-2.722656-.011719c-.011719 0-.023438 0-.035156 0-4.125 0-7.480469 3.335938-7.5 7.464844zm0 0"></path><path d="m53.535156 167.328125 2.722656.015625h.039063c4.125 0 7.476563-3.335938 7.496094-7.464844.019531-4.144531-3.320313-7.515625-7.464844-7.535156l-2.722656-.015625c-4.132813-.03125-7.511719 3.324219-7.535157 7.464844-.015624 4.144531 3.324219 7.519531 7.464844 7.535156zm0 0"></path><path d="m426.695312 72.484375h.039063c4.125 0 7.476563-3.335937 7.496094-7.464844l.015625-2.71875c.019531-4.140625-3.324219-7.515625-7.464844-7.53125-.015625 0-.023438 0-.039062 0-4.125 0-7.476563 3.332031-7.496094 7.464844l-.015625 2.714844c-.015625 4.140625 3.324219 7.515625 7.464843 7.535156zm0 0"></path><path d="m426.648438 100.128906c4.125 0 7.480468-3.332031 7.5-7.464844l.011718-2.714843c.019532-4.144531-3.324218-7.515625-7.464844-7.535157-.011718 0-.023437 0-.035156 0-4.125 0-7.480468 3.335938-7.5 7.464844l-.011718 2.714844c-.019532 4.144531 3.320312 7.519531 7.464843 7.535156zm0 0"></path><path d="m431.6875 77.449219c-.019531 4.144531 3.324219 7.515625 7.464844 7.535156l2.722656.015625h.035156c4.125 0 7.480469-3.335938 7.5-7.464844.019532-4.144531-3.324218-7.515625-7.464844-7.535156l-2.722656-.015625c-.011718 0-.023437 0-.035156 0-4.125 0-7.480469 3.335937-7.5 7.464844zm0 0"></path><path d="m411.449219 84.902344 2.722656.011718h.035156c4.125 0 7.476563-3.335937 7.496094-7.464843.023437-4.144531-3.320313-7.515625-7.464844-7.535157l-2.71875-.011718c-.015625 0-.023437 0-.039062 0-4.125 0-7.476563 3.332031-7.496094 7.464844-.019531 4.140624 3.324219 7.511718 7.464844 7.535156zm0 0"></path><path d="m463.296875 119.460938h.035156c4.125 0 7.476563-3.335938 7.496094-7.464844l.015625-2.714844c.019531-4.144531-3.324219-7.519531-7.464844-7.535156-4.183594-.035156-7.515625 3.320312-7.535156 7.464844l-.015625 2.714843c-.015625 4.144531 3.324219 7.515625 7.46875 7.535157zm0 0"></path><path d="m470.746094 139.644531.011718-2.71875c.019532-4.140625-3.324218-7.515625-7.464843-7.535156-.011719 0-.023438 0-.035157 0-4.125 0-7.480468 3.335937-7.5 7.464844l-.011718 2.71875c-.019532 4.140625 3.320312 7.515625 7.464844 7.535156h.035156c4.125 0 7.480468-3.335937 7.5-7.464844zm0 0"></path><path d="m468.285156 124.421875c-.019531 4.144531 3.320313 7.519531 7.460938 7.539063l2.722656.015624h.039062c4.125 0 7.480469-3.332031 7.5-7.464843.019532-4.140625-3.320312-7.515625-7.460937-7.535157l-2.722656-.015624c-.015625 0-.027344 0-.039063 0-4.125 0-7.480468 3.332031-7.5 7.460937zm0 0"></path><path d="m448.078125 116.875c-4.125 0-7.476563 3.335938-7.496094 7.464844-.019531 4.144531 3.320313 7.519531 7.464844 7.535156l2.722656.015625h.035157c4.125 0 7.476562-3.335937 7.5-7.464844.019531-4.144531-3.324219-7.515625-7.464844-7.535156l-2.722656-.015625c-.011719 0-.023438 0-.039063 0zm0 0"></path><path d="m146.609375 71.125h.101563c4.144531 0 7.5-3.355469 7.5-7.5 0-4.140625-3.355469-7.5-7.5-7.5h-.101563c-4.144531 0-7.5 3.359375-7.5 7.5 0 4.144531 3.355469 7.5 7.5 7.5zm0 0"></path><path d="m382.855469 161.128906h.101562.074219c4.105469 0 7.457031-3.3125 7.496094-7.429687.039062-4.144531-3.285156-7.53125-7.429688-7.570313h-.105468c-.019532 0-.046876 0-.070313 0-4.109375 0-7.457031 3.3125-7.496094 7.429688-.039062 4.140625 3.285157 7.53125 7.429688 7.570312zm0 0"></path><path d="m353.945312 84.996094.105469.003906h.070313c4.109375 0 7.460937-3.3125 7.5-7.429688.039062-4.144531-3.289063-7.53125-7.429688-7.570312l-.105468-.003906c-.023438 0-.046876 0-.070313 0-4.109375 0-7.460937 3.3125-7.5 7.429687-.039063 4.144531 3.289063 7.53125 7.429687 7.570313zm0 0"></path><path d="m457.078125 187.824219h-.101563c-4.144531 0-7.5 3.355469-7.5 7.5 0 4.140625 3.355469 7.5 7.5 7.5h.101563c4.144531 0 7.5-3.359375 7.5-7.5 0-4.144531-3.355469-7.5-7.5-7.5zm0 0"></path><path d="m414.328125 153.742188h-.105469c-.023437 0-.046875 0-.070312 0-4.109375 0-7.460938 3.3125-7.5 7.429687-.039063 4.140625 3.289062 7.53125 7.429687 7.570313h.105469.070312c4.109376 0 7.460938-3.3125 7.5-7.429688.039063-4.140625-3.289062-7.53125-7.429687-7.570312zm0 0"></path><path d="m135.402344 102.902344h.105468c4.140626 0 7.5-3.359375 7.5-7.5 0-4.144532-3.359374-7.5-7.5-7.5h-.105468c-4.140625 0-7.5 3.355468-7.5 7.5 0 4.140625 3.359375 7.5 7.5 7.5zm0 0"></path></svg>