<svg version="1.1" id="Layer_1" xmlns="http://www.w3.org/2000/svg" xmlns:xlink="http://www.w3.org/1999/xlink" x="0px" y="0px" viewBox="0 0 512 512" style="enable-background:new 0 0 512 512;" xml:space="preserve"><g><g><path d="M254.217,361.613c-1.773-2.568-4.696-4.101-7.817-4.101c-3.121,0-6.044,1.533-7.818,4.101 c-6.156,8.913-36.869,54.455-36.869,75.77c0,24.64,20.045,44.686,44.686,44.686s44.686-20.045,44.686-44.686 C291.085,416.068,260.374,370.526,254.217,361.613z M246.401,463.068c-14.162,0-25.684-11.522-25.684-25.684 c0-9.329,13.243-33.617,25.684-53.158c12.442,19.542,25.684,43.829,25.684,53.158 C272.085,451.546,260.563,463.068,246.401,463.068z"></path></g></g><g><g><path d="M331.854,182.933c-1.773-2.568-4.696-4.101-7.817-4.101s-6.044,1.533-7.817,4.101c-6.158,8.913-36.87,54.455-36.87,75.77 c0,24.64,20.047,44.686,44.687,44.686c24.64,0,44.686-20.045,44.686-44.686C368.723,237.387,338.012,191.846,331.854,182.933z M324.037,284.386c-14.163,0-25.685-11.522-25.685-25.684c0-9.329,13.243-33.617,25.685-53.158 c12.442,19.542,25.684,43.829,25.684,53.158C349.721,272.864,338.199,284.386,324.037,284.386z"></path></g></g><g><g><path d="M452.079,196.104c0.109-2.426,0.165-4.857,0.165-7.279c0-87.615-71.281-158.894-158.894-158.894 c-36.324,0-70.515,11.934-98.875,34.511c-24.612,19.593-42.929,46.303-52.451,76.043c-11.179-3.908-23.112-5.985-35.413-5.985 C47.826,134.5,0,182.326,0,241.11c0,58.785,47.826,106.61,106.61,106.61h13.564c6.421,16.815,22.711,28.794,41.756,28.794 s35.334-11.979,41.756-28.794h231.588c42.308,0,76.727-34.42,76.727-76.728C512.001,234.503,486.819,203.784,452.079,196.104z M161.93,357.512c-14.162,0-25.684-11.522-25.684-25.684c0-9.329,13.243-33.617,25.684-53.158 c12.442,19.542,25.684,43.829,25.684,53.158C187.615,345.992,176.092,357.512,161.93,357.512z M435.273,328.718H206.405 c-2.588-22.34-30.785-64.157-36.657-72.659c-1.774-2.568-4.697-4.101-7.818-4.101c-3.121,0-6.044,1.533-7.818,4.101 c-5.873,8.503-34.07,50.32-36.657,72.659h-10.843c-48.308,0-87.609-39.301-87.609-87.609c0-48.308,39.301-87.609,87.609-87.609 c30.647,0,58.554,15.6,74.651,41.73c2.752,4.469,8.605,5.86,13.072,3.106c4.468-2.752,5.858-8.604,3.106-13.072 c-9.633-15.637-22.748-28.165-38.023-36.868c17.682-58.924,71.714-99.464,133.934-99.464c77.137,0,139.893,62.756,139.893,139.893 c0,4.779-0.243,9.595-0.722,14.313c-0.255,2.511,0.5,5.021,2.097,6.975c1.599,1.955,3.908,3.192,6.419,3.44 c29.623,2.931,51.963,27.625,51.963,57.439C493,302.823,467.103,328.718,435.273,328.718z"></path></g></g></svg>