<svg version="1.1" id="Layer_1" xmlns="http://www.w3.org/2000/svg" xmlns:xlink="http://www.w3.org/1999/xlink" x="0px" y="0px" viewBox="0 0 512 512" style="enable-background:new 0 0 512 512;" xml:space="preserve"><g><g><path d="M452.078,201.059c0.109-2.426,0.165-4.857,0.165-7.279c0-87.615-71.281-158.894-158.894-158.894 c-36.324,0-70.515,11.933-98.876,34.51c-24.612,19.593-42.945,46.298-52.465,76.038c-11.174-3.905-23.102-5.981-35.397-5.981 C47.826,139.454,0,187.279,0,246.064s47.826,106.61,106.61,106.61l156.962,0.05l-29.749,112.458 c-1.179,4.457,1.013,9.118,5.197,11.053c1.284,0.594,2.641,0.879,3.983,0.879c3.032,0,5.981-1.454,7.805-4.078l83.697-120.363 h100.767c42.308,0,76.728-34.42,76.728-76.727C512,239.459,486.818,208.74,452.078,201.059z M265.973,417.942l19.124-72.29 c0.754-2.849,0.143-5.888-1.657-8.224c-1.798-2.336-4.579-3.705-7.528-3.705h-34.456l30.768-95.373h72.09l-41.104,74.902 c-1.615,2.944-1.557,6.521,0.153,9.409c1.71,2.889,4.818,4.661,8.175,4.661h17.449L265.973,417.942z M435.272,333.673h-87.554 l7.25-10.427c2.02-2.904,2.259-6.69,0.62-9.825c-1.638-3.135-4.882-5.099-8.42-5.099h-19.576l41.104-74.902 c1.615-2.944,1.557-6.521-0.153-9.409c-1.71-2.889-4.818-4.661-8.175-4.661h-95.06c-4.123,0-7.775,2.66-9.042,6.584 l-34.758,107.741H106.61c-48.308,0-87.609-39.301-87.609-87.609c0-48.308,39.301-87.609,87.609-87.609 c30.647,0,58.554,15.6,74.651,41.73c2.752,4.468,8.607,5.858,13.072,3.107c4.468-2.752,5.858-8.605,3.107-13.072 c-9.633-15.637-22.75-28.165-38.024-36.868c17.682-58.924,71.714-99.464,133.933-99.464c77.138,0,139.893,62.756,139.893,139.893 c0,4.774-0.243,9.589-0.722,14.314c-0.255,2.511,0.5,5.02,2.097,6.974c1.599,1.954,3.907,3.192,6.419,3.439 c29.623,2.932,51.963,27.625,51.963,57.439C492.999,307.777,467.103,333.673,435.272,333.673z"></path></g></g></svg>