<svg id="Layer_1" viewBox="0 0 512 512" xmlns="http://www.w3.org/2000/svg" data-name="Layer 1"><path d="m297.516 69.221a41.52 41.52 0 0 0 -42.616 1.321l-140.357 78.791h-45.21a48.054 48.054 0 0 0 -48 48v117.334a48.054 48.054 0 0 0 48 48h45.21l140.357 78.789a41.525 41.525 0 0 0 42.615 1.323 43.522 43.522 0 0 0 22.485-38.286v-296.987a43.521 43.521 0 0 0 -22.484-38.285zm-254.85 245.446v-117.334a26.7 26.7 0 0 1 26.667-26.667h37.333v170.667h-37.333a26.7 26.7 0 0 1 -26.667-26.666zm256 89.827a21.912 21.912 0 0 1 -11.391 19.57 20.221 20.221 0 0 1 -21.151-.749q-.261-.167-.53-.319l-137.594-77.241v-179.51l137.6-77.245q.269-.151.53-.318a20.22 20.22 0 0 1 21.151-.749 21.913 21.913 0 0 1 11.391 19.57z"></path><path d="m448.585 121.9a10.667 10.667 0 0 0 -17.5 12.2 213.4 213.4 0 0 1 0 243.8 10.667 10.667 0 1 0 17.5 12.2 234.736 234.736 0 0 0 0-268.2z"></path><path d="m365.6 174.113a10.667 10.667 0 0 0 -2.637 14.853 117.344 117.344 0 0 1 0 134.068 10.666 10.666 0 1 0 17.49 12.214 138.673 138.673 0 0 0 0-158.5 10.668 10.668 0 0 0 -14.853-2.635z"></path></svg>