<svg version="1.1" id="Layer_1" xmlns="http://www.w3.org/2000/svg" xmlns:xlink="http://www.w3.org/1999/xlink" x="0px" y="0px" viewBox="0 0 512 512" style="enable-background:new 0 0 512 512;" xml:space="preserve"><g><g><path d="M331.184,93.695c-32.598,0-59.117,26.519-59.117,59.116c0,5.38,4.362,9.742,9.742,9.742s9.742-4.362,9.742-9.742 c0-21.853,17.779-39.632,39.633-39.632c21.854,0,39.633,17.778,39.633,39.632c0,21.854-17.779,39.633-39.633,39.633H36.233 c-5.38,0-9.742,4.362-9.742,9.742c0,5.38,4.362,9.742,9.742,9.742h294.951c32.597,0,59.117-26.52,59.117-59.117 C390.301,120.215,363.782,93.695,331.184,93.695z"></path></g></g><g><g><path d="M292.961,300.071H9.742c-5.38,0-9.742,4.362-9.742,9.742s4.362,9.742,9.742,9.742h283.219 c21.854,0,39.633,17.78,39.633,39.633c0,21.853-17.779,39.632-39.633,39.632s-39.633-17.778-39.633-39.632 c0-5.38-4.362-9.742-9.742-9.742s-9.742,4.362-9.742,9.742c0,32.597,26.519,59.116,59.117,59.116s59.117-26.519,59.117-59.116 C352.078,326.59,325.559,300.071,292.961,300.071z"></path></g></g><g><g><path d="M452.883,148.787c-32.598,0-59.117,26.52-59.117,59.117c0,5.38,4.362,9.742,9.742,9.742s9.742-4.362,9.742-9.742 c0-21.854,17.779-39.633,39.633-39.633c21.854,0,39.633,17.78,39.633,39.633s-17.779,39.632-39.633,39.632H22.988 c-5.38,0-9.742,4.362-9.742,9.742c0,5.38,4.362,9.742,9.742,9.742h429.895c32.598,0,59.117-26.519,59.117-59.116 S485.481,148.787,452.883,148.787z"></path></g></g></svg>